<svg xmlns="http://www.w3.org/2000/svg" xmlns:xlink="http://www.w3.org/1999/xlink" version="1.1" id="Layer_1" x="0px" y="0px" width="100px" height="100px" viewBox="0 0 100 100" enable-background="new 0 0 100 100" xml:space="preserve">
<path d="M99.474,49.938c0.107-1.085-0.119-1.964-0.554-2.652c-1.086-3.551-3.506-6.144-6.469-8.758  c-1.572-1.387-3.749-2.848-4.426-4.922c-0.857-2.629,0.034-6.266,0.109-8.984c0.131-4.739-1.471-9.302-5.861-11.562  c-5.053-2.6-10.709-0.199-15.979-1.187c-3.846-0.721-6.835-7.254-10.136-9.386c-4.395-2.837-9.255-2.519-13.334,0.727  c-3.148,2.504-6.047,8.435-10.304,8.812c-5.53,0.494-10.592-1.168-15.812,1.517c-4.427,2.277-5.005,8.033-4.886,12.383  c0.071,2.537,0.547,5.158,0.074,7.679c-0.43,2.291-3.744,4.322-5.365,5.751c-3.399,2.998-6.458,6.807-5.983,11.597  c0.53,5.324,5.096,8.728,8.78,12.042c4.104,3.693,2.395,8.521,2.48,13.521c0.09,5.385,2.861,9.463,7.994,11.099  c4.571,1.456,10.442-1.426,14.651,0.711c4.428,2.246,6.444,7.847,11.168,10.101c7.413,3.538,12.931-2.892,17.398-7.858  c4.965-5.518,13.752-0.925,20.193-4.238c7.493-3.854,3.632-13.767,4.812-20.062c0.535-2.853,5.194-5.525,7.151-7.438  c1.942-1.898,3.21-4.021,3.861-6.479C99.386,51.701,99.57,50.908,99.474,49.938z M80.916,59.884  c-3.158,4.638-2.221,10.086-2.075,15.37c0.085,3.054-0.627,3.515-3.564,3.564c-2.626,0.044-5.242-0.317-7.874-0.264  c-5.554,0.111-9.132,3.346-12.604,7.301c-1.112,1.27-2.981,4.117-4.838,4.302c-1.617,0.16-3.935-3.276-4.839-4.302  c-3.667-4.157-6.939-6.797-12.604-7.301c-2.593-0.231-5.278,0.191-7.874,0.264c-3.054,0.084-3.514-0.628-3.563-3.565  c-0.091-5.373,1.167-10.608-2.075-15.369c-1.977-2.9-8.916-6.448-9.264-9.946c-0.16-1.616,3.276-3.935,4.302-4.838  c2.086-1.841,3.981-3.669,5.554-5.977c2.778-4.078,1.61-9.927,1.484-14.501c-0.084-3.054,0.627-3.515,3.564-3.564  c3.044-0.052,6.034,0.428,9.083,0.156c5.006-0.445,8.234-3.592,11.395-7.193c1.113-1.27,2.982-4.117,4.838-4.302  c1.841-0.183,4.627,4.06,5.664,5.242c3.341,3.806,6.691,5.908,11.779,6.36c2.593,0.231,5.278-0.191,7.873-0.263  c3.746-0.104,3.62,1.548,3.528,4.869c-0.137,4.928-0.824,9.754,2.11,14.064c1.977,2.901,8.916,6.448,9.265,9.946  C89.832,53.436,82.893,56.983,80.916,59.884z"/>
<path d="M64.819,28.509c-12.097,12.096-24.192,24.19-36.288,36.287c-4.241,4.241,2.33,10.812,6.571,6.57  c12.097-12.095,24.192-24.19,36.288-36.287C75.632,30.838,69.061,24.268,64.819,28.509z"/>
<path d="M37.751,49.39c5.93,0.43,9.308-5.772,9.842-10.854c0.05-0.25,0.08-0.515,0.066-0.808c0.013-0.288-0.014-0.549-0.063-0.795  c-0.526-5.58-3.858-10.435-9.845-10.869c-6.25-0.454-9.669,6.46-9.909,11.664C27.572,43.621,31.874,48.963,37.751,49.39z   M37.751,32.259c2.649-0.193,3.624,3.535,3.712,5.469c-0.102,2.236-1.04,5.272-3.712,5.466c-2.649,0.192-3.625-3.534-3.713-5.466  C33.935,35.497,35.223,32.443,37.751,32.259z"/>
<path d="M72.018,61.354c-0.526-5.58-3.858-10.435-9.847-10.869c-6.248-0.454-9.669,6.459-9.908,11.663  c-0.27,5.894,4.031,11.236,9.908,11.663c5.931,0.43,9.309-5.772,9.842-10.854c0.051-0.25,0.082-0.516,0.067-0.81  C72.094,61.861,72.065,61.601,72.018,61.354z M62.171,67.615c-2.648,0.192-3.623-3.534-3.712-5.467  c-0.103-2.229,1.186-5.284,3.712-5.468c2.649-0.192,3.625,3.535,3.714,5.468C65.781,64.386,64.844,67.422,62.171,67.615z"/>
</svg>